<svg width="426" height="425" viewBox="0 0 426 425" fill="none" xmlns="http://www.w3.org/2000/svg">
<path d="M189.763 63.3211C236.235 57.5639 285.693 72.4446 324.514 105.952C362.963 139.215 390.903 191.723 380.664 232.49C369.808 273.385 321.517 303.028 275.281 325.484C228.801 348.311 184.992 363.823 151.136 351.187C117.28 338.551 93.5051 298.385 79.7295 255.183C66.0818 212.599 62.3054 166.36 81.6075 130.48C100.91 94.5999 143.535 68.7055 189.763 63.3211Z" fill="url(#paint0_linear_15_15)"/>
<path d="M182.956 252.75H160.767V181.48H182.956V252.75ZM171.85 171.758C164.756 171.758 159 165.896 159 158.82C159 151.743 164.756 146 171.85 146C178.943 146 184.699 151.743 184.699 158.82C184.699 165.896 178.943 171.758 171.85 171.758ZM265.976 252.75H243.836V218.056C243.836 209.788 243.669 199.184 232.3 199.184C220.764 199.184 218.996 208.168 218.996 217.461V252.75H196.832V181.48H218.113V191.202H218.423C221.385 185.602 228.622 179.693 239.417 179.693C261.868 179.693 266 194.443 266 213.6V252.75H265.976Z" fill="#3D0B37"/>
<defs>
<linearGradient id="paint0_linear_15_15" x1="259.224" y1="424.295" x2="175.875" y2="-1.47112" gradientUnits="userSpaceOnUse">
<stop stop-color="#F3F9D2"/>
<stop offset="1" stop-color="#C0D684"/>
</linearGradient>
</defs>
</svg>
