<svg xmlns="http://www.w3.org/2000/svg" xmlns:xlink="http://www.w3.org/1999/xlink" viewBox="0 0 720 720"><defs><style>.cls-1{fill:none;}.cls-2{fill:#63264a;}.cls-3{fill:#3d0b37;}.cls-4{fill:#3e0938;}.cls-5{fill:url(#polygon_pattern);}</style><pattern id="polygon_pattern" data-name="polygon pattern" width="222.4" height="325.85" patternTransform="translate(32.49 45.25) scale(1 0.99)" patternUnits="userSpaceOnUse" viewBox="0 0 222.4 325.85"><rect class="cls-1" width="222.4" height="325.85"/><polygon class="cls-2" points="166.79 522.65 167.62 522.17 253.4 472.65 253.4 372.65 166.79 322.65 80.19 372.65 80.19 472.65 166.79 522.65"/><path class="cls-3" d="M42.69,351V494.3l124.51,29,99-43,24.7,14V351L166.79,279.35ZM215.9,451l-49.11,28.35L117.69,451V394.3L166.79,366,215.9,394.3Z"/><path class="cls-2" d="M67.69,365.43V479.86l99.1,57.22,99.11-57.22V365.43l-99.11-57.22Zm173.21,100-74.11,42.78-74.1-42.78V379.86l74.1-42.78,74.11,42.78Z"/><polygon class="cls-2" points="-55.6 522.65 -54.77 522.17 31 472.65 31 372.65 -55.6 322.65 -142.21 372.65 -142.21 472.65 -55.6 522.65"/><path class="cls-3" d="M-179.71,351V494.3l124.51,29,99-43,24.7,14V351L-55.6,279.35ZM-6.5,451l-49.1,28.35L-104.71,451V394.3L-55.6,366-6.5,394.3Z"/><path class="cls-2" d="M-154.71,365.43V479.86l99.11,57.22,99.1-57.22V365.43l-99.1-57.22Zm173.21,100-74.1,42.78-74.11-42.78V379.86l74.11-42.78,74.1,42.78Z"/><polygon class="cls-2" points="278 129.04 277.17 129.52 191.4 179.04 191.4 279.05 278 329.05 364.6 279.05 364.6 179.04 278 129.04"/><path class="cls-3" d="M402.1,300.69V157.39l-124.51-29-99,43-24.69-14v143.3L278,372.35Zm-173.2-100L278,172.35l49.1,28.35v56.69L278,285.74l-49.1-28.35Z"/><path class="cls-2" d="M377.1,286.26V171.83L278,114.61l-99.1,57.22V286.26L278,343.48Zm-173.2-100L278,143.48l74.1,42.78v85.57L278,314.61l-74.1-42.78Z"/><polygon class="cls-2" points="166.79 196.8 167.62 196.32 253.4 146.8 253.4 46.8 166.79 -3.2 80.19 46.8 80.19 146.8 166.79 196.8"/><path class="cls-3" d="M42.69,25.15v143.3l124.51,29,99-43,24.7,14V25.15L166.79-46.5Zm173.21,100L166.79,153.5l-49.1-28.35V68.45l49.1-28.35L215.9,68.45Z"/><path class="cls-2" d="M67.69,39.58V154l99.1,57.22L265.9,154V39.58L166.79-17.63Zm173.21,100-74.11,42.79-74.1-42.79V54l74.1-42.78L240.9,54Z"/><polygon class="cls-2" points="55.6 129.04 54.77 129.52 -31 179.04 -31 279.05 55.6 329.05 142.21 279.05 142.21 179.04 55.6 129.04"/><path class="cls-3" d="M179.71,300.69V157.39l-124.51-29-99,43-24.7-14v143.3L55.6,372.35ZM6.5,200.69l49.1-28.34,49.11,28.35v56.69L55.6,285.74,6.5,257.39Z"/><path class="cls-2" d="M154.71,286.26V171.83L55.6,114.61l-99.1,57.22V286.26l99.1,57.22Zm-173.21-100,74.1-42.78,74.11,42.78v85.57L55.6,314.61l-74.1-42.78Z"/><rect class="cls-4" x="43.2" y="107.92" width="25" height="49.5"/><polygon class="cls-2" points="-55.6 196.8 -54.77 196.32 31 146.8 31 46.8 -55.6 -3.2 -142.21 46.8 -142.21 146.8 -55.6 196.8"/><path class="cls-3" d="M-179.71,25.15v143.3l124.51,29,99-43,24.7,14V25.15L-55.6-46.5Zm173.21,100L-55.6,153.5l-49.11-28.35V68.45L-55.6,40.1-6.5,68.45Z"/><path class="cls-2" d="M-154.71,39.58V154l99.11,57.22L43.5,154V39.58L-55.6-17.63Zm173.21,100-74.1,42.79-74.11-42.79V54L-55.6,11.24,18.5,54Z"/><polygon class="cls-2" points="278 -196.8 277.17 -196.32 191.4 -146.8 191.4 -46.8 278 3.2 364.6 -46.8 364.6 -146.8 278 -196.8"/><path class="cls-3" d="M402.1-25.15v-143.3l-124.51-29-99,43-24.69-14v143.3L278,46.5Zm-173.2-100L278-153.5l49.1,28.35v56.7L278-40.1,228.9-68.45Z"/><path class="cls-2" d="M377.1-39.58V-154L278-211.23,178.9-154V-39.58L278,17.63Zm-173.2-100L278-182.37l74.1,42.79V-54L278-11.23,203.9-54Z"/><polygon class="cls-2" points="55.6 -196.8 54.77 -196.32 -31 -146.8 -31 -46.8 55.6 3.2 142.21 -46.8 142.21 -146.8 55.6 -196.8"/><path class="cls-3" d="M179.71-25.15v-143.3l-124.51-29-99,43-24.7-14v143.3L55.6,46.5ZM6.5-125.15,55.6-153.5l49.11,28.35v56.7L55.6-40.1,6.5-68.45Z"/><path class="cls-2" d="M154.71-39.58V-154L55.6-211.23-43.5-154V-39.58L55.6,17.63Zm-173.21-100,74.1-42.79,74.11,42.79V-54L55.6-11.23-18.5-54Z"/></pattern></defs><g id="Layer_2" data-name="Layer 2"><g id="Layer_1-2" data-name="Layer 1"><rect class="cls-5" width="720" height="720"/></g></g></svg>